HIERARCHY
ROOT SimulationBone
{
	OFFSET 0.000000 0.000000 0.000000
	CHANNELS 6 Xposition Yposition Zposition Zrotation Yrotation Xrotation 
	JOINT Hips
	{
		OFFSET 0.000000 0.000000 0.000000
		CHANNELS 6 Xposition Yposition Zposition Zrotation Yrotation Xrotation 
		JOINT LeftUpLeg
		{
			OFFSET 0.103459 1.857831 10.548505
			CHANNELS 3 Zrotation Yrotation Xrotation
			JOINT LeftLeg
			{
				OFFSET 43.500004 -0.000023 -0.000004
				CHANNELS 3 Zrotation Yrotation Xrotation
				JOINT LeftFoot
				{
					OFFSET 42.372204 0.000019 -0.000006
					CHANNELS 3 Zrotation Yrotation Xrotation
					JOINT LeftToe
					{
						OFFSET 17.300005 0.000001 -0.000002
						CHANNELS 3 Zrotation Yrotation Xrotation
						End Site
						{
							OFFSET 0.000000 0.000000 0.000000
						}
					}
				}
			}
		}
		JOINT RightUpLeg
		{
			OFFSET 0.103461 1.857828 -10.548505
			CHANNELS 3 Zrotation Yrotation Xrotation
			JOINT RightLeg
			{
				OFFSET 43.500046 -0.000019 0.000006
				CHANNELS 3 Zrotation Yrotation Xrotation
				JOINT RightFoot
				{
					OFFSET 42.372261 -0.000015 0.000011
					CHANNELS 3 Zrotation Yrotation Xrotation
					JOINT RightToe
					{
						OFFSET 17.299999 -0.000003 0.000002
						CHANNELS 3 Zrotation Yrotation Xrotation
						End Site
						{
							OFFSET 0.000000 0.000000 0.000000
						}
					}
				}
			}
		}
		JOINT Spine
		{
			OFFSET 6.901964 -2.603731 0.000000
			CHANNELS 3 Zrotation Yrotation Xrotation
			JOINT Spine1
			{
				OFFSET 12.588102 -0.000003 0.000000
				CHANNELS 3 Zrotation Yrotation Xrotation
				JOINT Spine2
				{
					OFFSET 12.343204 0.000002 0.000000
					CHANNELS 3 Zrotation Yrotation Xrotation
					JOINT Neck
					{
						OFFSET 25.832891 -0.000013 0.000001
						CHANNELS 3 Zrotation Yrotation Xrotation
						JOINT Head
						{
							OFFSET 11.766613 0.000015 -0.000000
							CHANNELS 3 Zrotation Yrotation Xrotation
							End Site
							{
								OFFSET 0.000000 0.000000 0.000000
							}
						}
					}
					JOINT LeftShoulder
					{
						OFFSET 19.745911 -1.480375 6.000106
						CHANNELS 3 Zrotation Yrotation Xrotation
						JOINT LeftArm
						{
							OFFSET 11.284125 -0.000012 -0.000024
							CHANNELS 3 Zrotation Yrotation Xrotation
							JOINT LeftForeArm
							{
								OFFSET 33.000050 0.000007 0.000027
								CHANNELS 3 Zrotation Yrotation Xrotation
								JOINT LeftHand
								{
									OFFSET 25.200005 0.000018 0.000002
									CHANNELS 3 Zrotation Yrotation Xrotation
									End Site
									{
										OFFSET 0.000000 0.000000 0.000000
									}
								}
							}
						}
					}
					JOINT RightShoulder
					{
						OFFSET 19.746092 -1.480375 -6.000074
						CHANNELS 3 Zrotation Yrotation Xrotation
						JOINT RightArm
						{
							OFFSET 11.284139 -0.000017 -0.000020
							CHANNELS 3 Zrotation Yrotation Xrotation
							JOINT RightForeArm
							{
								OFFSET 33.000099 0.000021 0.000012
								CHANNELS 3 Zrotation Yrotation Xrotation
								JOINT RightHand
								{
									OFFSET 25.199780 0.000137 0.000427
									CHANNELS 3 Zrotation Yrotation Xrotation
									End Site
									{
										OFFSET 0.000000 0.000000 0.000000
									}
								}
							}
						}
					}
				}
			}
		}
	}
}
MOTION
Frames: 13
Frame Time: 0.016667
-47.093040 0.000000 -284.583842 0.000000 98.843008 0.000000 -3.073092 77.491287 -2.921830 96.368863 -3.891692 179.543931 177.259501 -4.158804 174.661119 -79.675815 -1.188251 3.443522 67.881568 -3.682887 -3.303700 21.454548 0.003104 0.000018 136.509977 6.385693 -175.552486 -38.478061 -2.230930 4.774969 68.606729 -0.559946 8.210151 21.454551 -0.003096 -0.000004 12.465862 0.856294 -2.035848 14.887075 1.967700 -3.944795 14.569617 1.943735 -3.956598 -10.454233 2.014317 14.655778 -16.900181 -9.763026 18.821652 98.916927 -73.915456 80.946562 -26.092747 46.553650 -4.970558 -76.788483 -9.046691 2.399305 -0.560811 -15.817834 30.730290 167.933491 77.189343 -10.884618 10.604763 -54.447486 -45.838758 -35.182221 15.170671 -1.350386 5.354806 5.054101 -8.832697 
-46.991489 0.000000 -287.834978 0.000000 99.851308 0.000000 -2.343791 77.687798 -2.791279 96.367723 -3.290626 -179.784624 177.196413 -6.410952 175.423578 -81.093016 -0.886644 4.125623 63.109223 -5.534474 -6.056879 21.454551 0.003108 0.000017 135.857170 6.074186 -175.893096 -44.334410 -2.131877 5.794418 69.668322 -2.287305 5.413368 21.454549 -0.003094 0.000001 12.112568 1.124946 -2.020350 14.173253 2.489196 -3.888204 13.855638 2.465564 -3.903162 -10.196841 1.824073 14.356536 -16.132754 -9.553113 18.289438 98.911589 -73.983273 80.945240 -24.807172 47.894066 -2.146799 -77.230007 -8.646993 2.389565 -0.197963 -14.950830 30.653225 169.725371 77.129654 -9.059912 12.554307 -53.185627 -47.365620 -34.738283 15.078129 -1.338310 5.032778 5.944198 -7.960569 
-46.942267 0.000000 -290.997197 0.000000 100.772110 0.000000 -1.648114 77.421837 -2.647492 96.864449 -2.643467 -179.863306 177.520209 -8.524006 175.478024 -83.069825 -0.504983 3.776792 60.351482 -6.608392 -8.604878 21.454557 0.003111 0.000019 135.733247 5.766602 -174.500951 -50.221598 -2.853878 5.857215 72.889490 -3.034354 3.590668 21.454551 -0.003089 0.000002 11.949381 1.324450 -1.902968 13.844611 2.867296 -3.634495 13.526794 2.845180 -3.651740 -10.267867 1.863008 14.192193 -15.583826 -9.510956 18.058464 98.713421 -74.053317 81.136243 -23.459050 48.835435 0.468803 -77.618241 -8.269570 2.380827 -0.248572 -14.419788 30.829243 169.617092 77.252228 -9.165720 13.220903 -51.899451 -48.365586 -34.055923 14.716553 -1.295614 5.139489 7.005582 -6.605304 
-46.943641 0.000000 -294.075964 0.000000 101.607176 0.000000 -1.030786 76.967674 -2.503274 97.598618 -1.999065 179.773780 177.873887 -10.296758 175.231825 -85.374142 -0.039521 2.822248 59.646131 -6.782160 -10.404138 21.454562 0.003113 0.000021 136.142987 5.566013 -172.231195 -55.632726 -3.986014 5.537155 77.160495 -3.173089 2.492915 21.454552 -0.003085 0.000000 11.901183 1.477203 -1.769777 13.748404 3.154398 -3.352312 13.430403 3.133970 -3.371295 -10.500352 2.057782 14.121875 -15.225199 -9.578292 18.036901 99.040397 -74.098026 80.805645 -22.003194 49.383808 2.904963 -77.811027 -7.999202 2.370870 -0.582892 -13.986818 31.280746 168.558831 77.361095 -10.240353 12.519726 -50.634730 -48.625082 -33.009294 14.304860 -1.243513 5.387269 7.922594 -5.330496 
-46.993874 0.000000 -297.076746 0.000000 102.358781 0.000000 -0.535973 76.599579 -2.373452 98.320797 -1.420230 179.583760 177.862907 -11.530100 175.123892 -87.770846 0.538820 1.686737 61.041475 -5.974182 -10.822372 21.454565 0.003112 0.000020 137.109025 5.554503 -169.934546 -60.040661 -5.009112 5.288376 81.413559 -3.140335 1.876924 21.454553 -0.003085 -0.000001 11.892333 1.605403 -1.707722 13.729969 3.402266 -3.213814 13.411839 3.382666 -3.234299 -10.726407 2.336440 14.104278 -15.030583 -9.693233 18.135298 100.612337 -74.082523 79.237676 -20.388568 49.539525 5.193816 -77.666326 -7.920666 2.358644 -1.070198 -13.411170 32.032490 167.548569 77.255063 -11.274326 10.382419 -49.405735 -47.945639 -31.470400 14.061922 -1.198485 5.456588 8.393769 -4.716165 
-47.091232 0.000000 -300.005007 0.000000 103.029622 0.000000 -0.189913 76.518426 -2.269575 98.840049 -0.988986 179.855396 177.162135 -12.078940 175.458231 -90.063725 1.241740 0.658363 64.344820 -4.311185 -9.433174 21.454563 0.003110 0.000017 138.601229 5.773947 -168.311542 -63.115443 -5.464052 5.372357 84.862711 -3.273723 1.516285 21.454550 -0.003092 -0.000000 11.860703 1.720093 -1.766631 13.662581 3.636904 -3.318947 13.344389 3.616671 -3.340855 -10.819709 2.632500 14.088617 -14.961484 -9.823947 18.265127 103.698466 -73.961131 76.164763 -18.668322 49.378818 7.316672 -77.034122 -8.108976 2.342789 -1.579913 -12.564609 33.058293 167.377699 76.862340 -11.464640 6.944557 -48.254768 -46.171990 -29.441179 14.157459 -1.166738 5.184618 8.230093 -5.159381 
-47.233982 0.000000 -302.866211 0.000000 103.622749 0.000000 0.051006 76.631493 -2.183964 99.162749 -0.794175 -179.766602 175.818741 -12.006504 175.926890 -92.223802 1.864374 -0.511087 68.167206 -2.258697 -7.019652 21.454562 0.003108 0.000014 140.327670 6.077180 -167.497658 -65.296881 -5.409630 5.668763 87.762814 -3.512337 1.442757 21.454548 -0.003099 0.000001 11.799459 1.786830 -1.846128 13.535989 3.777489 -3.471882 13.217782 3.756336 -3.494643 -10.821169 2.901008 13.980269 -14.929439 -10.065843 18.337589 106.892900 -73.778265 72.984857 -17.287968 49.311465 9.083557 -75.732795 -8.600415 2.323371 -2.014735 -11.773425 34.144029 167.799510 76.579700 -11.045889 3.066752 -47.510225 -43.226709 -27.457614 14.564011 -1.154996 5.084536 7.665902 -6.297892 
-47.420387 0.000000 -305.665825 0.000000 104.141495 0.000000 0.231038 76.813318 -2.107102 99.343503 -0.874604 -179.688979 173.993166 -11.441063 176.115694 -94.200730 2.209172 -2.131231 71.212158 -0.143298 -4.703258 21.454562 0.003110 0.000016 142.012548 6.311006 -167.413179 -67.062417 -5.066826 6.016629 90.492302 -3.727162 1.718121 21.454549 -0.003098 0.000000 11.719196 1.772530 -1.837920 13.375924 3.745757 -3.459908 13.057717 3.724674 -3.482478 -10.799317 3.121502 13.715278 -14.860780 -10.475467 18.291214 108.833174 -73.657665 71.051954 -16.585722 49.750184 10.352827 -73.644937 -9.388999 2.291881 -2.268560 -11.412597 35.039669 168.370489 76.744122 -10.456713 -0.538362 -47.432530 -38.968366 -26.099335 15.204984 -1.173886 5.620911 7.072864 -7.606333 
-47.648713 0.000000 -308.409313 0.000000 104.589421 0.000000 0.329855 77.101067 -2.051445 99.448718 -1.094464 -179.886902 171.890740 -10.529294 175.853261 -95.703749 2.426284 -4.282106 73.907809 1.912338 -3.327703 21.454562 0.003111 0.000019 143.750073 6.420804 -167.636324 -68.295812 -4.717578 6.328116 92.919771 -3.897370 2.192128 21.454553 -0.003093 -0.000001 11.643161 1.694498 -1.752909 13.228182 3.578395 -3.301704 12.909986 3.558264 -3.323261 -10.763493 3.349686 13.399466 -14.793104 -10.825548 18.177010 109.578121 -73.643683 70.306234 -16.306480 50.706511 11.125088 -70.948671 -10.338583 2.243532 -2.091179 -11.580295 35.496417 168.602303 77.000331 -10.210121 -3.891662 -47.650848 -33.548187 -25.577259 15.999508 -1.214939 6.392728 6.862708 -8.618146 
-47.917226 0.000000 -311.102140 0.000000 104.970267 0.000000 0.321994 77.545860 -2.025109 99.527057 -1.290810 179.777386 169.663002 -9.429237 175.133891 -96.467088 2.702395 -6.900017 76.863815 3.846950 -3.255918 21.454558 0.003109 0.000021 145.680502 6.363023 -167.738971 -68.818504 -4.595913 6.562572 94.855567 -4.018073 2.698030 21.454553 -0.003090 -0.000000 11.590544 1.586164 -1.629074 13.128872 3.347029 -3.068522 12.810694 3.328309 -3.088680 -10.724776 3.606086 13.155151 -14.780770 -10.896282 18.054857 109.572979 -73.718316 70.304180 -16.126148 52.038491 11.444201 -67.879984 -11.304068 2.185057 -1.288413 -12.236742 35.290271 168.053530 76.959111 -10.771393 -7.061775 -47.737845 -27.368229 -25.962873 16.843636 -1.272500 6.926608 7.305852 -8.874879 
-48.224191 0.000000 -313.749771 0.000000 105.287914 0.000000 0.224242 78.092003 -1.993704 99.550988 -1.364701 179.459645 167.245351 -8.290692 174.335948 -96.516173 2.927738 -9.524315 79.894942 5.706021 -3.360333 21.454555 0.003107 0.000022 147.740583 6.121508 -167.611599 -68.776712 -4.670999 6.750708 96.376495 -4.108486 3.215017 21.454553 -0.003090 0.000000 11.552271 1.495630 -1.493070 13.057885 3.150295 -2.808496 12.739702 3.133149 -2.827473 -10.761188 3.694321 12.999921 -14.826918 -10.780632 17.901735 109.594479 -73.806378 70.274098 -15.936833 53.440846 11.472168 -64.608732 -12.229948 2.118732 -0.075230 -13.070303 34.337938 166.862094 76.781006 -11.993806 -10.085122 -47.619081 -21.038918 -27.127919 17.551220 -1.339704 7.369197 8.182594 -7.954114 
-48.567873 0.000000 -316.357672 0.000000 105.546348 0.000000 0.064034 78.673369 -1.926927 99.484206 -1.263535 179.292732 164.572970 -7.217021 173.849877 -95.923164 2.960535 -11.630990 82.699760 7.377098 -2.554694 21.454556 0.003108 0.000023 149.837848 5.712389 -167.248098 -68.363319 -4.845298 6.917811 97.602630 -4.186323 3.751879 21.454551 -0.003094 -0.000001 11.514104 1.460145 -1.363548 12.985721 3.064187 -2.555159 12.667488 3.048569 -2.573637 -10.940862 3.468753 12.914028 -14.903059 -10.644155 17.696749 110.257155 -73.844966 69.605583 -15.693632 54.641150 11.388855 -61.267690 -13.082086 2.048515 1.285546 -13.777676 32.671707 165.311546 76.731783 -13.577227 -13.004457 -47.384419 -15.114248 -28.912449 17.990417 -1.402068 7.966298 9.201526 -5.631362 
-48.946537 0.000000 -318.931307 0.000000 105.749641 0.000000 -0.127488 79.288910 -1.856496 99.337494 -1.052596 179.300203 161.736544 -6.229206 173.732132 -94.730085 2.829247 -12.850043 84.984027 8.455991 -1.376609 21.454558 0.003110 0.000023 151.974577 5.256604 -166.731953 -67.639998 -5.028861 7.019603 98.566008 -4.222998 4.299703 21.454551 -0.003097 -0.000002 11.468504 1.458748 -1.238499 12.897952 3.046550 -2.307132 12.579653 3.032424 -2.325518 -11.228117 3.204403 12.832052 -14.907475 -10.629679 17.512651 111.137897 -73.874086 68.718919 -15.419839 55.660210 11.302153 -57.904321 -13.820812 1.973629 2.761284 -14.387360 30.591344 163.774166 76.955559 -15.134339 -15.876271 -47.345166 -9.763265 -31.246629 18.325918 -1.467614 8.645718 10.283582 -2.446852 
